<mxfile host="app.diagrams.net" agent="Mozilla/5.0 (Windows NT 10.0; Win64; x64) AppleWebKit/537.36 (KHTML, like Gecko) Chrome/126.0.0.0 Safari/537.36 OPR/112.0.0.0" version="24.7.10">
  <diagram name="PÃ¡gina-1" id="3fJ0UxAWKdKCoCQMbOqF">
    <mxGraphModel dx="1434" dy="796" grid="1" gridSize="10" guides="1" tooltips="1" connect="1" arrows="1" fold="1" page="1" pageScale="1" pageWidth="1169" pageHeight="827" math="0" shadow="0">
      <root>
        <mxCell id="0" />
        <mxCell id="1" parent="0" />
        <mxCell id="2Xfj8Krulw1dhzmwN-oB-1" value="Actor" style="shape=umlActor;verticalLabelPosition=bottom;verticalAlign=top;html=1;outlineConnect=0;" vertex="1" parent="1">
          <mxGeometry x="140" y="355" width="30" height="60" as="geometry" />
        </mxCell>
        <mxCell id="2Xfj8Krulw1dhzmwN-oB-2" value="login&lt;div&gt;&lt;br&gt;&lt;/div&gt;" style="ellipse;whiteSpace=wrap;html=1;" vertex="1" parent="1">
          <mxGeometry x="350" y="195" width="120" height="80" as="geometry" />
        </mxCell>
        <mxCell id="2Xfj8Krulw1dhzmwN-oB-3" value="tela principal" style="ellipse;whiteSpace=wrap;html=1;" vertex="1" parent="1">
          <mxGeometry x="555" y="305" width="120" height="80" as="geometry" />
        </mxCell>
        <mxCell id="2Xfj8Krulw1dhzmwN-oB-4" value="cadastrar turma" style="ellipse;whiteSpace=wrap;html=1;" vertex="1" parent="1">
          <mxGeometry x="740" y="205" width="120" height="80" as="geometry" />
        </mxCell>
        <mxCell id="2Xfj8Krulw1dhzmwN-oB-5" value="listar turmas" style="ellipse;whiteSpace=wrap;html=1;" vertex="1" parent="1">
          <mxGeometry x="740" y="369" width="120" height="80" as="geometry" />
        </mxCell>
        <mxCell id="2Xfj8Krulw1dhzmwN-oB-6" value="excluir turma&lt;div&gt;&lt;br&gt;&lt;/div&gt;" style="ellipse;whiteSpace=wrap;html=1;" vertex="1" parent="1">
          <mxGeometry x="910" y="280" width="120" height="80" as="geometry" />
        </mxCell>
        <mxCell id="2Xfj8Krulw1dhzmwN-oB-7" value="visualizar" style="ellipse;whiteSpace=wrap;html=1;" vertex="1" parent="1">
          <mxGeometry x="910" y="410" width="120" height="80" as="geometry" />
        </mxCell>
        <mxCell id="2Xfj8Krulw1dhzmwN-oB-8" value="cadastrar atividade" style="ellipse;whiteSpace=wrap;html=1;" vertex="1" parent="1">
          <mxGeometry x="910" y="160" width="120" height="80" as="geometry" />
        </mxCell>
        <mxCell id="2Xfj8Krulw1dhzmwN-oB-10" value="" style="endArrow=none;html=1;rounded=0;entryX=0;entryY=0.5;entryDx=0;entryDy=0;" edge="1" parent="1" source="2Xfj8Krulw1dhzmwN-oB-1" target="2Xfj8Krulw1dhzmwN-oB-2">
          <mxGeometry relative="1" as="geometry">
            <mxPoint x="260" y="395" as="sourcePoint" />
            <mxPoint x="420" y="394.5" as="targetPoint" />
          </mxGeometry>
        </mxCell>
        <mxCell id="2Xfj8Krulw1dhzmwN-oB-12" value="cadastro" style="ellipse;whiteSpace=wrap;html=1;" vertex="1" parent="1">
          <mxGeometry x="330" y="405" width="120" height="80" as="geometry" />
        </mxCell>
        <mxCell id="2Xfj8Krulw1dhzmwN-oB-16" value="" style="endArrow=none;html=1;rounded=0;entryX=0;entryY=0.5;entryDx=0;entryDy=0;" edge="1" parent="1" target="2Xfj8Krulw1dhzmwN-oB-12">
          <mxGeometry width="50" height="50" relative="1" as="geometry">
            <mxPoint x="170" y="375" as="sourcePoint" />
            <mxPoint x="220" y="325" as="targetPoint" />
          </mxGeometry>
        </mxCell>
        <mxCell id="2Xfj8Krulw1dhzmwN-oB-18" value="" style="endArrow=none;html=1;rounded=0;entryX=0.017;entryY=0.4;entryDx=0;entryDy=0;entryPerimeter=0;" edge="1" parent="1" target="2Xfj8Krulw1dhzmwN-oB-3">
          <mxGeometry width="50" height="50" relative="1" as="geometry">
            <mxPoint x="470" y="245" as="sourcePoint" />
            <mxPoint x="520" y="195" as="targetPoint" />
          </mxGeometry>
        </mxCell>
        <mxCell id="2Xfj8Krulw1dhzmwN-oB-19" value="includes" style="endArrow=block;endSize=16;endFill=0;html=1;rounded=0;entryX=0;entryY=0.5;entryDx=0;entryDy=0;" edge="1" parent="1" target="2Xfj8Krulw1dhzmwN-oB-4">
          <mxGeometry width="160" relative="1" as="geometry">
            <mxPoint x="630" y="305" as="sourcePoint" />
            <mxPoint x="790" y="305" as="targetPoint" />
          </mxGeometry>
        </mxCell>
        <mxCell id="2Xfj8Krulw1dhzmwN-oB-20" value="includes" style="endArrow=block;endSize=16;endFill=0;html=1;rounded=0;entryX=0;entryY=0.5;entryDx=0;entryDy=0;" edge="1" parent="1" target="2Xfj8Krulw1dhzmwN-oB-5">
          <mxGeometry width="160" relative="1" as="geometry">
            <mxPoint x="675" y="365" as="sourcePoint" />
            <mxPoint x="785" y="305" as="targetPoint" />
          </mxGeometry>
        </mxCell>
        <mxCell id="2Xfj8Krulw1dhzmwN-oB-21" value="includes" style="endArrow=block;endSize=16;endFill=0;html=1;rounded=0;entryX=0;entryY=0.5;entryDx=0;entryDy=0;" edge="1" parent="1" target="2Xfj8Krulw1dhzmwN-oB-7">
          <mxGeometry width="160" relative="1" as="geometry">
            <mxPoint x="860" y="423" as="sourcePoint" />
            <mxPoint x="925" y="467" as="targetPoint" />
          </mxGeometry>
        </mxCell>
        <mxCell id="2Xfj8Krulw1dhzmwN-oB-22" value="includes" style="endArrow=block;endSize=16;endFill=0;html=1;rounded=0;entryX=0;entryY=0.5;entryDx=0;entryDy=0;exitX=1;exitY=0;exitDx=0;exitDy=0;" edge="1" parent="1" source="2Xfj8Krulw1dhzmwN-oB-5" target="2Xfj8Krulw1dhzmwN-oB-6">
          <mxGeometry width="160" relative="1" as="geometry">
            <mxPoint x="860" y="355" as="sourcePoint" />
            <mxPoint x="910" y="382" as="targetPoint" />
          </mxGeometry>
        </mxCell>
        <mxCell id="2Xfj8Krulw1dhzmwN-oB-23" value="includes" style="endArrow=block;endSize=16;endFill=0;html=1;rounded=0;entryX=0;entryY=1;entryDx=0;entryDy=0;exitX=1;exitY=0;exitDx=0;exitDy=0;" edge="1" parent="1" target="2Xfj8Krulw1dhzmwN-oB-8">
          <mxGeometry width="160" relative="1" as="geometry">
            <mxPoint x="820" y="369" as="sourcePoint" />
            <mxPoint x="888" y="308" as="targetPoint" />
          </mxGeometry>
        </mxCell>
      </root>
    </mxGraphModel>
  </diagram>
</mxfile>
